<?xml version="1.0" encoding="UTF-8"?>
<svg id="Capa_1" xmlns="http://www.w3.org/2000/svg" version="1.1" viewBox="0 0 595.28 841.89">
  <!-- Generator: Adobe Illustrator 29.8.4, SVG Export Plug-In . SVG Version: 2.1.1 Build 6)  -->
  <defs>
    <style>
      .st0 {
        fill: #23241e;
        stroke: #000;
        stroke-miterlimit: 10;
        stroke-width: 2px;
      }
    </style>
  </defs>
  <g>
    <path d="M129.84,338.51c1.06-58.9-.59-120.44.39-159.86l-40.17,1.08c52.73-22.69,78.11-71.2,109.8-115.76v103.78l45.93.02v11.94s-45.95,0-45.95,0c-.28,39.68-.76,193.56-.51,282.35.01,11.24-2,46.17,7.92,64.24,4.44,8.81,16.25,21,22.53,28.62-122.74-3.88-98.46-109.17-99.95-204.4v-12Z"/>
    <path d="M381.48,546.95c8.11-10.6,11.3-18.44,5.81-31.78l-113.05-154.57,41.25-41.16c55.16,68.94,96.3,149.93,159.82,211.53l29.91,15.99h-123.74Z"/>
    <path d="M465.3,167.75c-35.66,20.4-54.35,35.85-83.78,63.86,8.18-25.25,23.49-45.15-4.03-63.86h87.81Z"/>
  </g>
  <g>
    <path class="st0" d="M154.35,690.34h-7.94v-66h-16.55v-.96h41.13v.96h-16.64v66Z"/>
    <path class="st0" d="M170.23,690.34h-1.15l28.6-66.96,1.05-.48,24.1,67.43h-8.13l-7.46-21.04h-27.93l-9.09,21.04ZM194.72,633.71l-15.02,34.63h27.26l-12.24-34.63Z"/>
    <path class="st0" d="M267.8,690.34h-36.35v-66.96h7.94v66h28.41v.96Z"/>
    <path class="st0" d="M315.43,623.38v.96h-30.13v28.7h27.93v.96h-27.93v35.39h32.23v.96h-40.17v-66.96h38.07Z"/>
    <path class="st0" d="M327.58,624.34v-.96h17.03v.96h-4.69v65.04h4.69v.96h-17.03v-.96h4.4v-65.04h-4.4Z"/>
    <path class="st0" d="M365.93,623.38v42.28l30.9-42.28.77.67-17.12,23.34,25.44,42.95h-8.9l-21.43-36.25-9.66,13.3v22.96h-7.94v-66.96h7.94Z"/>
    <path class="st0" d="M412.8,690.34h-1.15l28.6-66.96,1.05-.48,24.1,67.43h-8.13l-7.46-21.04h-27.93l-9.09,21.04ZM437.29,633.71l-15.02,34.63h27.26l-12.24-34.63Z"/>
    <path class="st0" d="M257.61,709.47v.48h-15.06v15.3h13.97v.48h-13.97v17.22h-3.97v-33.48h19.03Z"/>
    <path class="st0" d="M262.63,709.94v-.48h8.51v.48h-2.34v32.52h2.34v.48h-8.51v-.48h2.2v-32.52h-2.2Z"/>
    <path class="st0" d="M296.01,742.94h-18.17v-33.48h3.97v33h14.2v.48Z"/>
    <path class="st0" d="M301.18,742.94h-.62l4.16-33.48h1.58l10.04,30.94,10-30.94h1.58l4.16,33.48h-3.97l-3.3-26.78-8.66,26.78h-3.01l-8.75-26.45-3.2,26.45Z"/>
    <path class="st0" d="M356.41,711.47c-2.9-1.12-5.64-1.67-8.2-1.67s-4.57.54-6,1.63c-1.43,1.08-2.15,2.58-2.15,4.5,0,2.33,1.21,4.13,3.63,5.4,1.08.54,2.27,1.04,3.56,1.51s2.59.98,3.9,1.55c1.31.57,2.5,1.23,3.59,1.96,1.08.73,1.96,1.75,2.63,3.04s1,2.93,1,4.93-.56,3.69-1.67,5.09c-1.12,1.4-2.46,2.35-4.04,2.85s-3.42.74-5.52.74c-3.92,0-7.27-.97-10.04-2.92l.24-.38c1.05.83,2.42,1.51,4.09,2.03s3.39.79,5.14.79c2.58,0,4.79-.6,6.62-1.79,1.83-1.2,2.75-2.96,2.75-5.29,0-2.55-1.21-4.54-3.63-5.98-1.08-.64-2.27-1.23-3.56-1.77-1.29-.54-2.59-1.11-3.9-1.7-1.31-.59-2.5-1.25-3.59-1.99-2.42-1.59-3.63-3.86-3.63-6.79,0-2.33.78-4.22,2.34-5.67,1.56-1.45,3.91-2.18,7.05-2.18s6.34.54,9.59,1.63l-.19.48Z"/>
  </g>
</svg>